HIERARCHY
ROOT hip
{
  OFFSET 0.0 0.0 0.0
  CHANNELS 6 Xposition Yposition Zposition Zrotation Yrotation Xrotation
  JOINT torso
  {
    OFFSET 0.0 0.0 0.0
    CHANNELS 3 Zrotation Xrotation Yrotation
    JOINT neck
    {
      OFFSET -31.42098999999993 328.8025209999999 74.3554680000002
      CHANNELS 3 Zrotation Xrotation Yrotation
      JOINT head
      {
        OFFSET 3.3519900000001144 303.81732099999994 206.53942900000015
        CHANNELS 3 Zrotation Xrotation Yrotation
        End Site
        {
          OFFSET 0.0 0.0 0.0
        }
      }
    }
    JOINT left_collar
    {
      OFFSET -31.42098999999993 328.8025209999999 74.3554680000002
      CHANNELS 3 Zrotation Xrotation Yrotation
      JOINT left_upper_arm
      {
        OFFSET -124.490479 -8.162841999999841 8.226441000000023
        CHANNELS 3 Zrotation Xrotation Yrotation
        JOINT left_forearm
        {
          OFFSET -253.595764 -1.5758060000000569 105.0729980000001
          CHANNELS 3 Zrotation Xrotation Yrotation
          JOINT left_hand
          {
            OFFSET -269.48803699999996 0.1478270000000066 -55.346191999999974
            CHANNELS 3 Zrotation Xrotation Yrotation
            End Site
            {
              OFFSET 0.0 0.0 0.0
            }
          }
        }
      }
    }
    JOINT right_collar
    {
      OFFSET -31.42098999999993 328.8025209999999 74.3554680000002
      CHANNELS 3 Zrotation Xrotation Yrotation
      JOINT right_upper_arm
      {
        OFFSET 162.02484099999998 0.46441600000002836 2.2303470000001653
        CHANNELS 3 Zrotation Xrotation Yrotation
        JOINT right_forearm
        {
          OFFSET 240.01246700000004 -25.835875999999985 121.34179699999959
          CHANNELS 3 Zrotation Xrotation Yrotation
          JOINT right_hand
          {
            OFFSET 252.48539699999992 18.910399999999868 -67.53466800000001
            CHANNELS 3 Zrotation Xrotation Yrotation
            End Site
            {
              OFFSET 0.0 0.0 0.0
            }
          }
        }
      }
    }
  }
}
MOTION
Frames: 13
Frame Time: 0.01
-291.67456523750167 215.87327797635896 1449.061708632748 0.9711642291947146 1.1335725960458787 -3.000484686294221 -0.27021963030495055 -1.7966883487402745 -0.1059645679782676 -3.229285312221569 -4.18761081293803 2.3033632139321876 0.0 0.0 0.0 5.098209271505648 -0.5724313102793396 8.257229214673286 42.32855571671448 8.686726219819075 22.53557018635144 43.333231840020986 -4.619783821676137 -11.629398230407341 0.0 0.0 0.0 2.194682011353377 -0.1904225405973427 7.257542565226268 -34.66196250203428 3.9461955289789787 -31.789224430277777 -62.244597738365115 -9.43832917044018 15.546912879758727 0.0 0.0 0.0
-291.7564739872665 215.86798341857377 1449.1232953224728 0.941875743847377 1.11730539833324 -3.0059506895178414 -0.24032957107244313 -1.795283629973613 -0.11303776009998338 -3.2225423908083486 -4.1764194435834705 2.2983660965358608 0.0 0.0 0.0 5.129675663876374 -0.572614828366035 8.25705870645613 42.30757747602927 8.697297666422799 22.49777962948238 43.31156032218898 -4.614736610892985 -11.635669888666772 0.0 0.0 0.0 2.1743704335249383 -0.18867246874068788 7.249341248932226 -34.649808152139244 3.954760851283782 -31.762731327972684 -62.14733378035416 -9.439333252049424 15.51540242599897 0.0 0.0 0.0
-291.83867864601814 215.86272362735443 1449.1846613934772 0.9130185263218978 1.1025475468515726 -3.0139402992613182 -0.21115435801818153 -1.7949285008177716 -0.12003610359816225 -3.216452784266225 -4.166085894825446 2.2938480641994836 0.0 0.0 0.0 5.161087143790417 -0.5730413971049912 8.259088103877998 42.286821655758075 8.707933503416376 22.459921537738083 43.28952872319508 -4.6099110348070464 -11.641289425431134 0.0 0.0 0.0 2.1546680789423256 -0.18701457451117504 7.243077446386011 -34.63773632193319 3.9633884804361 -31.73612157992338 -62.051017954688014 -9.440426318825686 15.48390386517169 0.0 0.0 0.0
-291.9214969448925 215.8572578596956 1449.246147960105 0.8851719362170096 1.0889958848082688 -3.023934480191261 -0.18296967142192475 -1.7953750874074157 -0.12687074818522776 -3.210885009443634 -4.156664031261378 2.289718320552678 0.0 0.0 0.0 5.192016097887542 -0.5736188481850639 8.262495228803285 42.26650802583998 8.71861545457476 22.42216550089839 43.26703429508944 -4.605396523467529 -11.646001933925925 0.0 0.0 0.0 2.135593207611837 -0.18543029874912895 7.2378794123236405 -34.626014586491706 3.972111247788004 -31.70945807517718 -61.956512170951456 -9.441499445383156 15.452895357982205 0.0 0.0 0.0
-292.00529470885425 215.8513398678798 1449.3080878928038 0.8588949574947746 1.0763639999380894 -3.0354669104699417 -0.1560367076028905 -1.7963906323680625 -0.1334574631516246 -3.205714821804732 -4.148211333422848 2.2858912540802807 0.0 0.0 0.0 5.222062116002024 -0.5742590718167834 8.266501578101293 42.24684362725644 8.729319134449115 22.384690006082604 43.24397800426656 -4.601287354897697 -11.649540877381627 0.0 0.0 0.0 2.117159600471704 -0.18390221200719828 7.232914947552402 -34.614890855176654 3.980958741971415 -31.68280174677771 -61.864650521774244 -9.442448145647212 15.42284297183129 0.0 0.0 0.0
-292.09047212449195 215.84472543894177 1449.3707855208909 0.834710193852156 1.0643961148950325 -3.048145921728769 -0.13059578689332962 -1.797767040789522 -0.1397191007605894 -3.200831576730572 -4.14078976543837 2.282290902971632 0.0 0.0 0.0 5.250863260008571 -0.5748815616542555 8.270402799342863 42.22801771037433 8.74001234179869 22.347683706634584 43.22027167725388 -4.597680959497885 -11.65163434044157 0.0 0.0 0.0 2.0993787376494475 -0.18241482204867407 7.22742505758872 -34.60458387820234 3.9899540738892876 -31.656214140994454 -61.77622386775003 -9.443175185695676 15.394189932099756 0.0 0.0 0.0
-292.1774503358631 215.83717913121728 1449.4344994571002 0.813090088069946 1.0528769694402513 -3.061669112489772 -0.10686054358628919 -1.7993276798472786 -0.1455876813673005 -3.196142924403749 -4.134465114919999 2.278854215173224 0.0 0.0 0.0 5.27810548582888 -0.5754161971436983 8.273591599786046 42.21019714938862 8.750653809161268 22.311345796190444 43.19584453294237 -4.594675700072343 -11.652012424195673 0.0 0.0 0.0 2.0822609614352023 -0.18095511149388546 7.22074994457679 -34.595275187418046 3.9991111562439365 -31.629759490244947 -61.69196396492762 -9.443592895380839 15.36734644630017 0.0 0.0 0.0
-292.2666590458106 215.82847995143013 1449.4994294901285 0.7944458536783181 1.0416371442888235 -3.0758298056953635 -0.08501284094822392 -1.8009310546183748 -0.15100602135004662 -3.191577603928443 -4.129304782761319 2.2755329403653652 0.0 0.0 0.0 5.303529766798615 -0.5758050978602527 8.275571964886584 42.193522506145094 8.76119249126818 22.275885384975812 43.17064883139616 -4.592368166529181 -11.650415622665815 0.0 0.0 0.0 2.065815577910537 -0.17951278896812015 7.212346099642233 -34.587102822315224 4.0084326603471965 -31.603506096343818 -61.61252769102225 -9.443624843977833 15.342680593834515 0.0 0.0 0.0
-292.35852572334244 215.81842580207885 1449.56570822523 0.7791193935313229 1.0305536210657655 -3.0905151374554594 -0.06519847432090554 -1.8024711981514978 -0.15592886436998657 -3.187086260099902 -4.125374179279726 2.272294105241452 0.0 0.0 0.0 5.326936532106198 -0.5760034537131596 8.275964201627497 42.17810492248835 8.771567437029995 22.24151987519149 43.144664459765345 -4.59085007172181 -11.646603927833077 0.0 0.0 0.0 2.0500499930487295 -0.1780802628815387 7.201793971766895 -34.5801570806418 4.017908745072429 -31.577526933921806 -61.538482205445746 -9.44320673486098 15.320510899524015 0.0 0.0 0.0
-292.4534669140395 215.80683661189744 1449.6333978426744 0.7673782851214956 1.0195457330161857 -3.1056961775456315 -0.047523676821657874 -1.803874858415427 -0.16032351235374898 -3.182640354803766 -4.122732028323488 2.2691191307650045 0.0 0.0 0.0 5.348187172043771 -0.5759793124095441 8.274500972874993 42.164023987569045 8.781708259026356 22.208472392837336 43.11790235488642 -4.590204872942569 -11.640366337800572 0.0 0.0 0.0 2.0349680775529957 -0.17665236843413853 7.188796388964253 -34.57447840378127 4.0275165837257925 -31.551899480634884 -61.47029194802454 -9.442286398540299 15.301101196829817 0.0 0.0 0.0
-292.55188201237934 215.7935561495803 1449.7024919895398 0.7594137438253002 1.0085670243265703 -3.1214110737451266 -0.03205242781144236 -1.8050958265313775 -0.1641699828918749 -3.178229382956976 -4.121424986510857 2.2660017488609276 0.0 0.0 0.0 5.367202564034105 -0.5757123876998383 8.271015133029493 42.151326660945436 8.791536188992241 22.17696836146516 43.09040672385167 -4.590504269262976 -11.631530393935243 0.0 0.0 0.0 2.0205680096231875 -0.17522589503747663 7.1731685753895835 -34.57005736647402 4.037220650646189 -31.52670485912608 -61.4083082441958 -9.440822828056499 15.284658221423452 0.0 0.0 0.0
-292.654149674031 215.77845261576738 1449.7729224231193 0.755341336641816 0.9975938896925411 -3.1377427735799572 -0.018804580875441287 -1.8061070095062102 -0.16746074291273128 -3.1738567361003436 -4.121482061515903 2.2629449706787645 0.0 0.0 0.0 5.38395879776906 -0.5751920349202495 8.26542080006592 42.14002725843536 8.800965682155214 22.147231326237357 43.062256073518896 -4.5918047410344105 -11.61997134240047 0.0 0.0 0.0 2.0068398795742595 -0.17379897471488137 7.154821237871451 -34.56683660339986 4.046973672380703 -31.50202643852943 -61.35276204622027 -9.438784293762657 15.271332111431214 0.0 0.0 0.0
-292.760626828194 215.76141820336557 1449.8445696033632 0.7552041114226442 0.9866121976141876 -3.1547934023032997 -0.007754869710359812 -1.8068910882044131 -0.17020008368744005 -3.1695346890452645 -4.122909373460221 2.2599574521687305 0.0 0.0 0.0 5.398480484697346 -0.5744146204488935 8.257689694177284 42.1301084466493 8.809906504140928 22.119478174274608 43.03356310470963 -4.594144307842077 -11.605620497084887 0.0 0.0 0.0 1.99376337826905 -0.1723704038864607 7.13373877895265 -34.564714387537066 4.056718100949332 -31.477948092523658 -61.303760106773446 -9.436145678116874 15.26121969634617 0.0 0.0 0.0
